<mxfile host="app.diagrams.net" modified="2021-12-17T18:20:24.934Z" agent="5.0 (Macintosh; Intel Mac OS X 10_15_7) AppleWebKit/605.1.15 (KHTML, like Gecko) Version/15.2 Safari/605.1.15" etag="isbNVJDWeNkHs-VojKTH" version="16.0.0" type="github">
  <diagram name="Page-1" id="e7e014a7-5840-1c2e-5031-d8a46d1fe8dd">
    <mxGraphModel dx="946" dy="570" grid="1" gridSize="10" guides="1" tooltips="1" connect="1" arrows="1" fold="1" page="1" pageScale="1" pageWidth="1169" pageHeight="826" background="none" math="0" shadow="0">
      <root>
        <mxCell id="0" />
        <mxCell id="1" parent="0" />
        <mxCell id="0x0wc2zP2PB0x8VYFkZm-41" value="Klient biblioteki&lt;br&gt;" style="shape=umlActor;verticalLabelPosition=bottom;verticalAlign=top;html=1;" parent="1" vertex="1">
          <mxGeometry x="230" y="270" width="30" height="60" as="geometry" />
        </mxCell>
        <mxCell id="8aos3k-wgXRzJJYhK1MH-1" style="edgeStyle=orthogonalEdgeStyle;rounded=0;orthogonalLoop=1;jettySize=auto;html=1;" edge="1" parent="1" source="0x0wc2zP2PB0x8VYFkZm-42" target="0x0wc2zP2PB0x8VYFkZm-41">
          <mxGeometry relative="1" as="geometry" />
        </mxCell>
        <mxCell id="0x0wc2zP2PB0x8VYFkZm-42" value="Wypożyczenie&lt;br&gt;&amp;nbsp;materiału" style="ellipse;whiteSpace=wrap;html=1;" parent="1" vertex="1">
          <mxGeometry x="360" y="190" width="140" height="70" as="geometry" />
        </mxCell>
      </root>
    </mxGraphModel>
  </diagram>
</mxfile>
